<?xml version="1.0" standalone="no"?>
<!DOCTYPE svg PUBLIC "-//W3C//DTD SVG 20010904//EN"
 "http://www.w3.org/TR/2001/REC-SVG-20010904/DTD/svg10.dtd">
<svg version="1.0" xmlns="http://www.w3.org/2000/svg"
 width="534.000000pt" height="534.000000pt" viewBox="0 0 534.000000 534.000000"
 preserveAspectRatio="xMidYMid meet">
<metadata>
Created by potrace 1.14, written by Peter Selinger 2001-2017
</metadata>
<g transform="translate(0.000000,534.000000) scale(0.100000,-0.100000)"
fill="#000000" stroke="none">
<path d="M2407 5334 c-1 -1 -45 -5 -97 -8 -52 -3 -107 -8 -123 -11 -15 -3 -55
-10 -90 -15 -139 -24 -336 -83 -457 -137 -107 -48 -126 -58 -218 -110 -370
-213 -658 -501 -889 -893 -87 -149 -184 -366 -227 -515 -10 -33 -25 -80 -32
-104 -20 -60 -74 -333 -80 -401 -3 -30 -7 -61 -9 -68 -9 -27 -19 -243 -19
-412 0 -270 13 -410 59 -665 13 -66 57 -235 84 -320 124 -387 329 -724 611
-1005 128 -127 145 -143 215 -195 22 -16 42 -32 45 -35 14 -15 145 -102 215
-143 328 -190 692 -287 1083 -291 223 -1 312 6 467 39 39 8 73 15 77 16 4 0
26 6 48 14 22 8 41 14 43 14 1 0 15 4 30 10 16 6 33 11 38 11 6 0 20 5 32 12
12 7 27 13 32 14 6 1 59 24 117 52 219 103 412 233 578 390 47 44 87 78 89 76
2 -1 4 -16 6 -31 9 -99 60 -239 111 -303 43 -54 118 -121 168 -150 145 -82
370 -94 531 -27 133 55 246 170 299 306 45 116 44 48 42 2295 -2 1166 -6 2140
-11 2164 -4 23 -12 42 -16 42 -5 0 -9 10 -9 23 0 12 -7 33 -16 45 -8 12 -12
22 -9 22 13 0 -56 88 -106 136 -67 63 -164 117 -249 139 -64 17 -209 23 -262
11 -16 -3 -40 -8 -54 -11 -15 -3 -43 -13 -63 -22 -20 -9 -42 -17 -49 -19 -42
-8 -179 -138 -226 -213 -50 -78 -82 -192 -85 -296 l-1 -29 -37 35 c-73 69
-242 192 -348 254 -158 92 -448 214 -571 240 -188 39 -268 52 -387 61 -83 6
-276 12 -280 8z m421 -1068 c162 -15 396 -87 494 -151 21 -14 40 -25 43 -25 2
0 42 -27 87 -59 222 -159 387 -381 506 -682 34 -84 78 -240 87 -309 4 -24 8
-48 11 -51 9 -15 19 -186 19 -334 0 -177 -7 -246 -39 -410 -44 -223 -166 -490
-308 -675 -48 -63 -225 -240 -240 -240 -3 0 -13 -6 -20 -13 -89 -87 -374 -212
-532 -232 -17 -3 -60 -9 -96 -14 -178 -25 -452 4 -625 66 -112 41 -289 136
-333 180 -7 7 -18 13 -23 13 -17 0 -234 226 -274 285 -22 33 -43 62 -46 65 -8
6 -80 134 -101 180 -68 146 -126 342 -143 490 -3 25 -8 56 -12 70 -12 54 -10
398 2 500 57 451 233 796 537 1052 135 114 351 229 477 254 12 3 52 12 88 20
35 8 97 17 136 21 40 3 73 6 74 7 4 3 173 -3 231 -8z"/>
</g>
</svg>
