<svg width="391" height="297" viewBox="0 0 391 297" fill="none" xmlns="http://www.w3.org/2000/svg">
<path d="M132 95.2642C132 130.855 102.451 159.708 66 159.708C29.5492 159.708 0 130.855 0 95.2642C0 59.673 29.5492 30.8208 66 30.8208C102.451 30.8208 132 59.673 132 95.2642Z" fill="white"/>
<path d="M391 85.9245C391 116.358 361.451 141.028 325 141.028C288.549 141.028 259 116.358 259 85.9245C259 55.4916 288.549 30.8208 325 30.8208C361.451 30.8208 391 55.4916 391 85.9245Z" fill="white"/>
<path d="M216 73.783C216 109.374 186.451 138.226 150 138.226C113.549 138.226 84 109.374 84 73.783C84 38.1919 113.549 9.33962 150 9.33962C186.451 9.33962 216 38.1919 216 73.783Z" fill="white"/>
<path d="M313 232.557C313 268.148 283.451 297 247 297C210.549 297 181 268.148 181 232.557C181 196.966 210.549 168.113 247 168.113C283.451 168.113 313 196.966 313 232.557Z" fill="white"/>
<path d="M300 76.1179C300 118.157 267.541 152.236 227.5 152.236C187.459 152.236 155 118.157 155 76.1179C155 34.0792 187.459 0 227.5 0C267.541 0 300 34.0792 300 76.1179Z" fill="white"/>
<path d="M160 202.67C160 238.261 130.451 267.113 94 267.113C57.5492 267.113 28 238.261 28 202.67C28 167.079 57.5492 138.226 94 138.226C130.451 138.226 160 167.079 160 202.67Z" fill="white"/>
<path d="M103 152.236C103 187.827 79.9427 216.679 51.5 216.679C23.0573 216.679 0 187.827 0 152.236C0 116.645 23.0573 87.7924 51.5 87.7924C79.9427 87.7924 103 116.645 103 152.236Z" fill="white"/>
<path d="M386 205.472C386 241.063 356.451 269.915 320 269.915C283.549 269.915 254 241.063 254 205.472C254 169.881 283.549 141.028 320 141.028C356.451 141.028 386 169.881 386 205.472Z" fill="white"/>
<path d="M222 225.552C222 256.243 192.227 281.123 155.5 281.123C118.773 281.123 89 256.243 89 225.552C89 194.861 118.773 169.981 155.5 169.981C192.227 169.981 222 194.861 222 225.552Z" fill="white"/>
<path d="M391 147.566C391 212.043 305.263 264.311 199.5 264.311C93.7375 264.311 8 212.043 8 147.566C8 83.0894 93.7375 30.8208 199.5 30.8208C305.263 30.8208 391 83.0894 391 147.566Z" fill="white"/>
</svg>
