<svg width="1440" height="104" viewBox="0 0 1440 104" fill="none" xmlns="http://www.w3.org/2000/svg">
<ellipse cx="243.069" cy="102" rx="243.069" ry="69" fill="white"/>
<ellipse cx="243.069" cy="102" rx="243.069" ry="69" fill="white"/>
<ellipse cx="243.069" cy="102" rx="243.069" ry="69" fill="white"/>
<ellipse cx="1196.93" cy="92" rx="243.069" ry="59" fill="white"/>
<ellipse cx="1196.93" cy="92" rx="243.069" ry="59" fill="white"/>
<ellipse cx="1196.93" cy="92" rx="243.069" ry="59" fill="white"/>
<ellipse cx="552.43" cy="79" rx="243.069" ry="69" fill="white"/>
<ellipse cx="552.43" cy="79" rx="243.069" ry="69" fill="white"/>
<ellipse cx="552.43" cy="79" rx="243.069" ry="69" fill="white"/>
<ellipse cx="837.852" cy="81.5" rx="267.008" ry="81.5" fill="white"/>
<ellipse cx="837.852" cy="81.5" rx="267.008" ry="81.5" fill="white"/>
<ellipse cx="837.852" cy="81.5" rx="267.008" ry="81.5" fill="white"/>
<ellipse cx="189.668" cy="163" rx="189.668" ry="69" fill="white"/>
<ellipse cx="189.668" cy="163" rx="189.668" ry="69" fill="white"/>
<ellipse cx="189.668" cy="163" rx="189.668" ry="69" fill="white"/>
<ellipse cx="734.731" cy="158" rx="705.269" ry="125" fill="white"/>
</svg>
